<svg xmlns="http://www.w3.org/2000/svg" viewBox="0 0 512 512">
  <rect width="512" height="512" rx="128" fill="#0f172a"/>
  <rect x="96" y="96" width="320" height="320" rx="96" fill="#e0f2fe"/>
  <path d="M184 150h144v36c0 42-21 68-50 90 29 22 50 48 50 90v36H184v-36c0-42 21-68 50-90-29-22-50-48-50-90v-36Zm48 36v10c0 35 19 54 56 80 37-26 56-45 56-80v-10H232Zm0 180v10h112v-10c0-35-19-54-56-80-37 26-56 45-56 80Z" fill="#0284c7"/>
  <rect x="228" y="226" width="56" height="60" rx="18" fill="#38bdf8"/>
</svg>
